<?xml version="1.0" encoding="UTF-8"?>
<!DOCTYPE svg PUBLIC "-//W3C//DTD SVG 1.1//EN" "http://www.w3.org/Graphics/SVG/1.1/DTD/svg11.dtd">
<svg xmlns="http://www.w3.org/2000/svg" version="1.1" width="2000px" height="1333px" style="shape-rendering:geometricPrecision; text-rendering:geometricPrecision; image-rendering:optimizeQuality; fill-rule:evenodd; clip-rule:evenodd" xmlns:xlink="http://www.w3.org/1999/xlink">
<g><path style="opacity:0.39" fill="#f7f8fb" d="M -0.5,-0.5 C 28.5,-0.5 57.5,-0.5 86.5,-0.5C 86.5,28.8333 86.5,58.1667 86.5,87.5C 57.5,58.8333 28.5,30.1667 -0.5,1.5C -0.5,0.833333 -0.5,0.166667 -0.5,-0.5 Z"/></g>
<g><path style="opacity:0.492" fill="#f8fafb" d="M 86.5,-0.5 C 103.5,-0.5 120.5,-0.5 137.5,-0.5C 137.5,30.1667 137.5,60.8333 137.5,91.5C 132.036,97.4647 126.37,103.298 120.5,109C 116.167,111 111.833,111 107.5,109C 100.297,101.965 93.2974,94.7982 86.5,87.5C 86.5,58.1667 86.5,28.8333 86.5,-0.5 Z"/></g>
<g><path style="opacity:0.585" fill="#fafbfc" d="M 137.5,-0.5 C 168.167,-0.5 198.833,-0.5 229.5,-0.5C 199.167,30.5 168.5,61.1667 137.5,91.5C 137.5,60.8333 137.5,30.1667 137.5,-0.5 Z"/></g>
<g><path style="opacity:0.325" fill="#f6f8fa" d="M 316.5,-0.5 C 318.833,-0.5 321.167,-0.5 323.5,-0.5C 323.5,108.833 323.5,218.167 323.5,327.5C 269.535,274.035 215.701,220.368 162,166.5C 160,162.5 160,158.5 162,154.5C 213.701,102.965 265.201,51.2987 316.5,-0.5 Z"/></g>
<g><path style="opacity:0.494" fill="#f8fafb" d="M 323.5,-0.5 C 337.167,-0.5 350.833,-0.5 364.5,-0.5C 364.5,109.833 364.5,220.167 364.5,330.5C 360.37,335.131 356.037,339.631 351.5,344C 347.5,346 343.5,346 339.5,344C 333.964,338.631 328.63,333.131 323.5,327.5C 323.5,218.167 323.5,108.833 323.5,-0.5 Z"/></g>
<g><path style="opacity:0.655" fill="#fbfbfc" d="M 364.5,-0.5 C 367.833,-0.5 371.167,-0.5 374.5,-0.5C 425.799,51.2987 477.299,102.965 529,154.5C 531,158.5 531,162.5 529,166.5C 474.299,221.368 419.465,276.035 364.5,330.5C 364.5,220.167 364.5,109.833 364.5,-0.5 Z"/></g>
<g><path style="opacity:0.802" fill="#fcfdfe" d="M -0.5,91.5 C 20.4653,111.965 41.2986,132.632 62,153.5C 64,157.833 64,162.167 62,166.5C 41.2986,187.368 20.4653,208.035 -0.5,228.5C -0.5,182.833 -0.5,137.167 -0.5,91.5 Z"/></g>
<g><path style="opacity:0.494" fill="#f8fafb" d="M 135.5,229.5 C 135.5,371.167 135.5,512.833 135.5,654.5C 130.036,660.465 124.37,666.298 118.5,672C 114.167,674 109.833,674 105.5,672C 98.2974,664.965 91.2974,657.798 84.5,650.5C 84.5,511.5 84.5,372.5 84.5,233.5C 91.2974,226.202 98.2974,219.035 105.5,212C 109.833,210 114.167,210 118.5,212C 124.37,217.702 130.036,223.535 135.5,229.5 Z"/></g>
<g><path style="opacity:0.489" fill="#f8fafb" d="M 571.5,221.5 C 571.5,254.5 571.5,287.5 571.5,320.5C 567.168,325.976 563.168,325.643 559.5,319.5C 559.5,287.167 559.5,254.833 559.5,222.5C 563.168,216.357 567.168,216.024 571.5,221.5 Z"/></g>
<g><path style="opacity:0.638" fill="#fbfbfd" d="M 571.5,221.5 C 588.407,237.239 604.407,253.739 619.5,271C 604.407,288.261 588.407,304.761 571.5,320.5C 571.5,287.5 571.5,254.5 571.5,221.5 Z"/></g>
<g><path style="opacity:0.316" fill="#f6f8fa" d="M 559.5,222.5 C 559.5,254.833 559.5,287.167 559.5,319.5C 542.926,304.095 527.259,287.928 512.5,271C 527.259,254.072 542.926,237.905 559.5,222.5 Z"/></g>
<g><path style="opacity:0.659" fill="#fbfbfc" d="M 135.5,229.5 C 204.465,297.965 273.299,366.632 342,435.5C 344,439.833 344,444.167 342,448.5C 273.299,517.368 204.465,586.035 135.5,654.5C 135.5,512.833 135.5,371.167 135.5,229.5 Z"/></g>
<g><path style="opacity:0.379" fill="#f7f8fb" d="M 84.5,233.5 C 84.5,372.5 84.5,511.5 84.5,650.5C 56.1667,622.5 27.8333,594.5 -0.5,566.5C -0.5,483.5 -0.5,400.5 -0.5,317.5C 27.8333,289.5 56.1667,261.5 84.5,233.5 Z"/></g>
<g><path style="opacity:0.491" fill="#f8fafb" d="M 484.5,318.5 C 484.5,373.167 484.5,427.833 484.5,482.5C 477.824,492.008 471.491,491.675 465.5,481.5C 465.5,427.5 465.5,373.5 465.5,319.5C 471.491,309.325 477.824,308.992 484.5,318.5 Z"/></g>
<g><path style="opacity:0.649" fill="#fbfbfc" d="M 484.5,318.5 C 511.132,344.632 537.632,370.965 564,397.5C 564.667,399.5 564.667,401.5 564,403.5C 537.632,430.035 511.132,456.368 484.5,482.5C 484.5,427.833 484.5,373.167 484.5,318.5 Z"/></g>
<g><path style="opacity:0.322" fill="#f6f8fa" d="M 465.5,319.5 C 465.5,373.5 465.5,427.5 465.5,481.5C 439.201,455.702 413.035,429.702 387,403.5C 386.333,401.5 386.333,399.5 387,397.5C 413.035,371.298 439.201,345.298 465.5,319.5 Z"/></g>
<g><path style="opacity:0.493" fill="#f8fafb" d="M 359.5,557.5 C 359.5,670.833 359.5,784.167 359.5,897.5C 355.37,902.131 351.037,906.631 346.5,911C 342.5,913 338.5,913 334.5,911C 328.964,905.631 323.63,900.131 318.5,894.5C 318.5,783.167 318.5,671.833 318.5,560.5C 323.63,554.869 328.964,549.369 334.5,544C 338.5,542 342.5,542 346.5,544C 351.037,548.369 355.37,552.869 359.5,557.5 Z"/></g>
<g><path style="opacity:0.655" fill="#fbfbfc" d="M 359.5,557.5 C 414.465,611.965 469.299,666.632 524,721.5C 526,725.5 526,729.5 524,733.5C 469.299,788.368 414.465,843.035 359.5,897.5C 359.5,784.167 359.5,670.833 359.5,557.5 Z"/></g>
<g><path style="opacity:0.325" fill="#f6f8fa" d="M 318.5,560.5 C 318.5,671.833 318.5,783.167 318.5,894.5C 264.535,841.035 210.701,787.368 157,733.5C 155,729.5 155,725.5 157,721.5C 210.701,667.632 264.535,613.965 318.5,560.5 Z"/></g>
<g><path style="opacity:0.796" fill="#fcfdfe" d="M -0.5,648.5 C 23.4653,671.965 47.2986,695.632 71,719.5C 73,723.833 73,728.167 71,732.5C 47.2986,756.368 23.4653,780.035 -0.5,803.5C -0.5,751.833 -0.5,700.167 -0.5,648.5 Z"/></g>
<g><path style="opacity:0.494" fill="#f8fafb" d="M 135.5,803.5 C 135.5,945.167 135.5,1086.83 135.5,1228.5C 130.036,1234.46 124.37,1240.3 118.5,1246C 114.167,1248 109.833,1248 105.5,1246C 98.2974,1238.96 91.2974,1231.8 84.5,1224.5C 84.5,1085.5 84.5,946.5 84.5,807.5C 91.2974,800.202 98.2974,793.035 105.5,786C 109.833,784 114.167,784 118.5,786C 124.37,791.702 130.036,797.535 135.5,803.5 Z"/></g>
<g><path style="opacity:0.489" fill="#f8fafb" d="M 571.5,791.5 C 571.5,824.5 571.5,857.5 571.5,890.5C 567.168,895.976 563.168,895.643 559.5,889.5C 559.5,857.167 559.5,824.833 559.5,792.5C 563.168,786.357 567.168,786.024 571.5,791.5 Z"/></g>
<g><path style="opacity:0.638" fill="#fbfbfd" d="M 571.5,791.5 C 588.407,807.239 604.407,823.739 619.5,841C 604.407,858.261 588.407,874.761 571.5,890.5C 571.5,857.5 571.5,824.5 571.5,791.5 Z"/></g>
<g><path style="opacity:0.316" fill="#f6f8fa" d="M 559.5,792.5 C 559.5,824.833 559.5,857.167 559.5,889.5C 542.926,874.095 527.259,857.928 512.5,841C 527.259,824.072 542.926,807.905 559.5,792.5 Z"/></g>
<g><path style="opacity:0.659" fill="#fbfbfc" d="M 135.5,803.5 C 204.465,871.965 273.299,940.632 342,1009.5C 344,1013.83 344,1018.17 342,1022.5C 273.299,1091.37 204.465,1160.03 135.5,1228.5C 135.5,1086.83 135.5,945.167 135.5,803.5 Z"/></g>
<g><path style="opacity:0.379" fill="#f7f8fb" d="M 84.5,807.5 C 84.5,946.5 84.5,1085.5 84.5,1224.5C 56.1667,1196.5 27.8333,1168.5 -0.5,1140.5C -0.5,1057.5 -0.5,974.5 -0.5,891.5C 27.8333,863.5 56.1667,835.5 84.5,807.5 Z"/></g>
<g><path style="opacity:0.491" fill="#f8fafb" d="M 484.5,888.5 C 484.5,943.167 484.5,997.833 484.5,1052.5C 477.824,1062.01 471.491,1061.67 465.5,1051.5C 465.5,997.5 465.5,943.5 465.5,889.5C 471.491,879.325 477.824,878.992 484.5,888.5 Z"/></g>
<g><path style="opacity:0.649" fill="#fbfbfc" d="M 484.5,888.5 C 511.132,914.632 537.632,940.965 564,967.5C 564.667,969.5 564.667,971.5 564,973.5C 537.632,1000.03 511.132,1026.37 484.5,1052.5C 484.5,997.833 484.5,943.167 484.5,888.5 Z"/></g>
<g><path style="opacity:0.322" fill="#f6f8fa" d="M 465.5,889.5 C 465.5,943.5 465.5,997.5 465.5,1051.5C 439.201,1025.7 413.035,999.702 387,973.5C 386.333,971.5 386.333,969.5 387,967.5C 413.035,941.298 439.201,915.298 465.5,889.5 Z"/></g>
<g><path style="opacity:0.493" fill="#f8fafb" d="M 359.5,1126.5 C 359.5,1195.17 359.5,1263.83 359.5,1332.5C 345.833,1332.5 332.167,1332.5 318.5,1332.5C 318.5,1264.83 318.5,1197.17 318.5,1129.5C 323.63,1123.87 328.964,1118.37 334.5,1113C 338.5,1111 342.5,1111 346.5,1113C 351.037,1117.37 355.37,1121.87 359.5,1126.5 Z"/></g>
<g><path style="opacity:0.667" fill="#fbfbfd" d="M 359.5,1126.5 C 414.465,1180.97 469.299,1235.63 524,1290.5C 526,1294.5 526,1298.5 524,1302.5C 513.964,1312.37 504.131,1322.37 494.5,1332.5C 449.5,1332.5 404.5,1332.5 359.5,1332.5C 359.5,1263.83 359.5,1195.17 359.5,1126.5 Z"/></g>
<g><path style="opacity:0.315" fill="#f6f8fa" d="M 318.5,1129.5 C 318.5,1197.17 318.5,1264.83 318.5,1332.5C 274.5,1332.5 230.5,1332.5 186.5,1332.5C 176.869,1322.37 167.036,1312.37 157,1302.5C 155,1298.5 155,1294.5 157,1290.5C 210.701,1236.63 264.535,1182.97 318.5,1129.5 Z"/></g>
<g><path style="opacity:0.801" fill="#fcfdfe" d="M -0.5,1219.5 C 24.16,1243.33 48.3267,1267.66 72,1292.5C 72.8372,1296.29 72.5039,1299.96 71,1303.5C 61.2978,1313.03 51.7978,1322.7 42.5,1332.5C 28.1667,1332.5 13.8333,1332.5 -0.5,1332.5C -0.5,1294.83 -0.5,1257.17 -0.5,1219.5 Z"/></g>
</svg>
