<?xml version="1.0" encoding="UTF-8"?>
<!DOCTYPE svg PUBLIC "-//W3C//DTD SVG 1.1//EN" "http://www.w3.org/Graphics/SVG/1.1/DTD/svg11.dtd">
<svg xmlns="http://www.w3.org/2000/svg" version="1.1" width="2000px" height="1135px" style="shape-rendering:geometricPrecision; text-rendering:geometricPrecision; image-rendering:optimizeQuality; fill-rule:evenodd; clip-rule:evenodd" xmlns:xlink="http://www.w3.org/1999/xlink">
<g><path style="opacity:0.998" fill="#d77a1c" d="M 1403.5,-0.5 C 1423.5,-0.5 1443.5,-0.5 1463.5,-0.5C 1641.33,11.6472 1783.83,88.3138 1891,229.5C 1954.35,318.377 1990.52,417.377 1999.5,526.5C 1999.5,551.833 1999.5,577.167 1999.5,602.5C 1985.44,778.49 1908.77,919.99 1769.5,1027C 1682.94,1088.59 1586.6,1124.43 1480.5,1134.5C 1452.83,1134.5 1425.17,1134.5 1397.5,1134.5C 1250.79,1121.56 1126.96,1061.89 1026,955.5C 1018.86,947.869 1012.19,939.869 1006,931.5C 993.395,919.174 978.228,912.007 960.5,910C 891.42,888.659 836.754,848.159 796.5,788.5C 800.163,788.048 803.83,787.548 807.5,787C 826.5,786.667 845.5,786.333 864.5,786C 867.232,785.602 869.065,784.102 870,781.5C 870.981,755.413 870.648,729.413 869,703.5C 852.605,701.847 836.105,701.014 819.5,701C 815.973,700.14 813.807,697.973 813,694.5C 812.667,605.833 812.333,517.167 812,428.5C 810.988,425.798 809.488,423.465 807.5,421.5C 818.054,404.099 831.387,388.932 847.5,376C 860.634,365.267 874.301,355.267 888.5,346C 901.446,338.946 914.279,331.779 927,324.5C 945.825,288.161 967.159,253.494 991,220.5C 1074.28,113.735 1182.11,44.5682 1314.5,13C 1344.08,6.94268 1373.74,2.44268 1403.5,-0.5 Z"/></g>
<g><path style="opacity:1" fill="#9ad2a9" d="M 1302.5,274.5 C 1341.83,274.333 1381.17,274.5 1420.5,275C 1424.68,275.78 1428.85,276.614 1433,277.5C 1434.89,277.777 1436.22,278.777 1437,280.5C 1438.32,418.137 1438.99,555.804 1439,693.5C 1438.71,697.142 1440.21,699.642 1443.5,701C 1456.5,701.333 1469.5,701.667 1482.5,702C 1485.57,702.739 1487.74,704.572 1489,707.5C 1489.79,732.183 1489.45,756.849 1488,781.5C 1487.17,783.667 1485.67,785.167 1483.5,786C 1420.5,787.188 1357.5,787.521 1294.5,787C 1290.99,786.664 1288.16,785.164 1286,782.5C 1284.63,757.513 1284.3,732.513 1285,707.5C 1285.77,705.061 1287.27,703.227 1289.5,702C 1307.2,701.898 1324.87,701.231 1342.5,700C 1344.16,697.493 1344.99,694.659 1345,691.5C 1345.67,583.5 1345.67,475.5 1345,367.5C 1344.35,365.277 1342.85,364.11 1340.5,364C 1323.47,363.453 1306.47,362.453 1289.5,361C 1287.67,360.5 1286.5,359.333 1286,357.5C 1285.33,331.833 1285.33,306.167 1286,280.5C 1286.83,279.667 1287.67,278.833 1288.5,278C 1293.3,276.801 1297.96,275.634 1302.5,274.5 Z"/></g>
<g><path style="opacity:1" fill="#9ad2a9" d="M 1717.5,312.5 C 1756.17,312.964 1794.84,313.631 1833.5,314.5C 1830.11,320.398 1825.77,325.565 1820.5,330C 1793.46,354.04 1766.13,377.707 1738.5,401C 1735.62,402.608 1732.62,403.941 1729.5,405C 1708.83,405.667 1688.17,405.667 1667.5,405C 1665.41,403.745 1664.41,401.912 1664.5,399.5C 1665.1,396.298 1666.27,393.298 1668,390.5C 1680.92,367.661 1693.59,344.661 1706,321.5C 1709.18,317.462 1713.02,314.462 1717.5,312.5 Z"/></g>
<g><path style="opacity:0.995" fill="#511c8e" d="M -0.5,631.5 C -0.5,615.5 -0.5,599.5 -0.5,583.5C 5.43332,541.18 22.2667,503.846 50,471.5C 87.4601,433.284 133.127,414.284 187,414.5C 217.978,414.036 246.478,422.203 272.5,439C 275.737,440.452 279.07,441.619 282.5,442.5C 285.378,435.801 287.211,428.801 288,421.5C 290.166,419.879 292.666,419.045 295.5,419C 344.503,418.59 393.503,418.923 442.5,420C 443.333,420.833 444.167,421.667 445,422.5C 447.02,452.513 446.853,482.513 444.5,512.5C 427.83,512.333 411.163,512.5 394.5,513C 391.089,513.117 388.589,514.617 387,517.5C 386.804,605.504 386.137,693.504 385,781.5C 384.142,799.699 381.808,817.699 378,835.5C 369.49,863.69 353.657,886.857 330.5,905C 295.454,931.669 255.788,946.336 211.5,949C 144.253,954.581 85.0861,935.748 34,892.5C 33.3333,890.833 33.3333,889.167 34,887.5C 53.7961,864.702 73.9628,842.202 94.5,820C 97.9983,818.033 101.332,818.367 104.5,821C 125.998,839.913 150.998,851.579 179.5,856C 209.762,859.241 237.096,851.907 261.5,834C 280.373,817.101 287.373,796.268 282.5,771.5C 269.724,777.054 257.057,782.887 244.5,789C 190.979,807.832 138.979,804.165 88.5,778C 51.2401,755.067 25.4067,722.9 11,681.5C 6.06117,664.954 2.22783,648.287 -0.5,631.5 Z M 182.5,510.5 C 229.201,507.259 262.034,526.925 281,569.5C 292.028,604.228 288.362,637.228 270,668.5C 237.402,708.691 197.235,718.524 149.5,698C 122.549,680.638 107.382,655.805 104,623.5C 99.6235,586.107 111.124,554.607 138.5,529C 151.711,519.212 166.378,513.046 182.5,510.5 Z"/></g>
<g><path style="opacity:1" fill="#9ad2aa" d="M 1031.5,413.5 C 1057.65,412.518 1083.65,414.018 1109.5,418C 1136.82,423.574 1160.32,436.074 1180,455.5C 1194.47,473.902 1202.47,494.902 1204,518.5C 1204.81,578.198 1205.81,637.864 1207,697.5C 1208.56,699.768 1210.72,700.934 1213.5,701C 1227.17,701.333 1240.83,701.667 1254.5,702C 1257.2,702.69 1259.36,704.19 1261,706.5C 1262.15,719.075 1262.65,731.742 1262.5,744.5C 1262.33,756.5 1262.17,768.5 1262,780.5C 1261.69,781.766 1261.19,782.933 1260.5,784C 1256.77,785.969 1252.77,786.969 1248.5,787C 1208.17,787.667 1167.83,787.667 1127.5,787C 1123.98,786.496 1121.48,784.663 1120,781.5C 1118.93,776.189 1117.93,770.855 1117,765.5C 1101.46,775.019 1084.96,782.519 1067.5,788C 1037.75,794.743 1008.25,793.91 979,785.5C 940.336,770.836 914.669,743.836 902,704.5C 889.931,638.471 914.097,590.971 974.5,562C 1009.57,548.591 1045.24,546.924 1081.5,557C 1090.41,559.635 1099.24,562.469 1108,565.5C 1109.26,565.241 1110.26,564.574 1111,563.5C 1118.18,521.997 1100.68,499.831 1058.5,497C 1045.03,495.258 1032.03,496.925 1019.5,502C 1011.55,507.618 1003.88,513.618 996.5,520C 993.5,520.667 990.5,520.667 987.5,520C 964.797,506.623 942.631,492.456 921,477.5C 920.333,476.5 920.333,475.5 921,474.5C 934.175,460.659 948.008,447.492 962.5,435C 973.177,426.663 985.177,420.996 998.5,418C 1009.62,416.305 1020.62,414.805 1031.5,413.5 Z"/></g>
<g><path style="opacity:0.995" fill="#744ba3" d="M 807.5,421.5 C 809.488,423.465 810.988,425.798 812,428.5C 812.333,517.167 812.667,605.833 813,694.5C 813.807,697.973 815.973,700.14 819.5,701C 836.105,701.014 852.605,701.847 869,703.5C 870.648,729.413 870.981,755.413 870,781.5C 869.065,784.102 867.232,785.602 864.5,786C 845.5,786.333 826.5,786.667 807.5,787C 803.83,787.548 800.163,788.048 796.5,788.5C 773.163,788.228 749.83,787.728 726.5,787C 723.943,786.315 722.109,784.815 721,782.5C 720.165,776.717 719.165,771.051 718,765.5C 706.338,770.247 694.838,775.413 683.5,781C 646.828,796.198 609.828,797.198 572.5,784C 538.001,767.544 520.168,740.044 519,701.5C 516.515,641.837 516.015,582.17 517.5,522.5C 518.283,516.076 515.616,512.243 509.5,511C 497.514,510.092 485.514,509.425 473.5,509C 472.069,508.535 470.903,507.701 470,506.5C 468.723,488.919 467.889,471.252 467.5,453.5C 467.754,444.087 468.588,434.754 470,425.5C 470.75,424.874 471.584,424.374 472.5,424C 516.838,422.107 561.172,422.107 605.5,424C 608.094,425.339 609.594,427.506 610,430.5C 610.027,515.852 610.694,601.186 612,686.5C 613.295,697.792 619.461,704.625 630.5,707C 648.085,708.283 664.752,704.95 680.5,697C 690.166,691.836 699.5,686.169 708.5,680C 716.568,675.161 720.068,667.994 719,658.5C 719.667,611.167 719.667,563.833 719,516.5C 718.727,514.899 718.227,513.399 717.5,512C 715.5,511.667 713.5,511.333 711.5,511C 695.224,510.468 679.057,509.301 663,507.5C 661.153,492.589 660.32,477.589 660.5,462.5C 660.667,454.833 660.833,447.167 661,439.5C 661.119,434.718 661.785,430.051 663,425.5C 664.826,423.926 666.993,423.093 669.5,423C 715.503,422.64 761.503,422.14 807.5,421.5 Z"/></g>
<g><path style="opacity:1" fill="#9ad2aa" d="M 1523.5,423.5 C 1566.85,423.151 1610.18,423.651 1653.5,425C 1654.42,425.374 1655.25,425.874 1656,426.5C 1656.92,429.101 1657.59,431.768 1658,434.5C 1658.04,514.514 1658.71,594.514 1660,674.5C 1660.29,683.154 1661.95,691.487 1665,699.5C 1670.97,705.714 1678.3,708.381 1687,707.5C 1698.05,707.541 1708.72,705.541 1719,701.5C 1732.16,696.17 1744.66,689.67 1756.5,682C 1763.64,676.563 1767.8,669.396 1769,660.5C 1769.67,613.167 1769.67,565.833 1769,518.5C 1768.7,516.112 1767.86,513.945 1766.5,512C 1749.31,509.054 1731.97,507.721 1714.5,508C 1713.58,507.626 1712.75,507.126 1712,506.5C 1710.97,491.354 1710.47,476.188 1710.5,461C 1710.35,449.407 1710.85,437.907 1712,426.5C 1713.07,425.809 1714.23,425.309 1715.5,425C 1739.17,424.833 1762.83,424.667 1786.5,424.5C 1810.92,424.342 1835.25,424.842 1859.5,426C 1860.7,426.903 1861.53,428.069 1862,429.5C 1862.33,518.167 1862.67,606.833 1863,695.5C 1863.11,697.848 1864.28,699.348 1866.5,700C 1880.46,701.221 1894.46,701.888 1908.5,702C 1911.17,702.333 1913.83,702.667 1916.5,703C 1917.33,703.833 1918.17,704.667 1919,705.5C 1920.09,712.94 1920.59,720.44 1920.5,728C 1920.31,746.236 1919.48,764.402 1918,782.5C 1916.05,784.894 1913.55,786.394 1910.5,787C 1867.17,787.667 1823.83,787.667 1780.5,787C 1777.46,786.647 1774.79,785.48 1772.5,783.5C 1770.31,778.767 1768.81,773.767 1768,768.5C 1767.52,766.354 1766.19,765.354 1764,765.5C 1749.74,773.213 1734.9,779.713 1719.5,785C 1697.6,791.863 1675.27,794.196 1652.5,792C 1599.81,784.11 1571.64,753.61 1568,700.5C 1566.77,639.51 1566.1,578.51 1566,517.5C 1565.5,513.98 1563.66,511.48 1560.5,510C 1548.22,508.749 1535.89,508.082 1523.5,508C 1521.67,507.727 1520.17,506.893 1519,505.5C 1517.36,480.229 1517.03,454.896 1518,429.5C 1519.02,426.65 1520.85,424.65 1523.5,423.5 Z"/></g>
<g><path style="opacity:1" fill="#d77a1d" d="M 1029.5,627.5 C 1057.06,626.224 1082.4,633.057 1105.5,648C 1113.16,654.454 1115.66,662.62 1113,672.5C 1112.86,676.619 1112.19,680.619 1111,684.5C 1082.78,712.132 1049.61,720.966 1011.5,711C 995.237,702.992 987.237,689.826 987.5,671.5C 988.448,652.386 997.781,639.219 1015.5,632C 1020.25,630.358 1024.92,628.858 1029.5,627.5 Z"/></g>
</svg>
